<svg xmlns="http://www.w3.org/2000/svg" xmlns:svg="http://www.w3.org/2000/svg" xmlns:xlink="http://www.w3.org/1999/xlink" width="1900" height="1900"><path d="m953.53 8.99l8.25 0 35.55 15.01q35.55 15.01 46.97 19.67t77.76 30.27 68.55 25.88 35.23 12.16 50.78 17.6 51.42 15.53 42.53 12.42 22.22 6.21 34.28 8.8 53.32 12.42 62.84 12.94 39.36 7.25 56.49 8.8 59.67 8.8 59.03 7.76 47.61 6.21 45.7 7.25 45.39 7.5l0.32 0.26 -1.9 77.11q-1.9 77.11-9.52 199.24t-12.06 170.78 -10.16 83.32 -13.33 65.72 -16.5 62.62 -15.87 55.37 -16.5 51.23 -11.43 33.12 -5.71 14.49 -8.89 21.74 -15.87 37.26 -17.77 38.81 -17.14 34.67 -26.03 48.65 -19.04 33.12 -23.17 33.9 -24.12 34.67 -19.68 27.43 -20.31 27.95 -14.6 18.63 -15.87 19.67 -13.96 16.56 -15.23 17.6 -11.43 13.46 -12.06 13.97 -15.23 17.08 -15.87 17.59 -14.6 15.53 -25.71 24.58 -46.34 41.4 -46.97 39.85 -26.98 20.96 -31.1 22.25 -29.83 21.73 -26.66 19.15 -27.93 19.67 -15.23 10.35 -23.8 16.3 -23.17 15.27 -15.23 8.8 -26.66 13.46 -25.39 12.94 -13.65 6.99 -15.87 8.28 -12.06 6.73 -16.5 7.25 -30.47 11.9 -24.76 8.8l-6.98 2.07 -7.62-1.55q-7.62-1.55-16.5-5.18t-29.83-12.42 -24.12-10.87 -16.19-9.06 -19.68-10.35 -26.03-12.94 -26.66-13.46 -15.23-8.8 -18.09-11.64 -26.98-18.37 -29.2-20.18 -36.18-25.88 -30.47-21.74 -29.2-20.7 -25.07-18.37 -22.53-18.37 -27.93-23.29 -34.91-31.05 -32.37-29.5 -15.87-16.04 -16.5-17.08 -12.06-13.46 -12.7-14.49 -12.06-13.46 -9.2-10.61 -10.47-12.16 -11.43-13.46 -12.7-15.53 -12.06-15.01 -13.33-17.08 -12.06-16.04 -15.87-22.25 -17.14-23.29 -20.63-29.76 -24.76-36.74 -14.6-23.29 -17.77-32.6 -11.43-22.25 -11.43-23.81 -17.77-36.74 -17.77-40.88 -22.85-58.48 -25.39-75.56 -19.68-66.24 -15.87-63.14 -12.06-54.34 -8.25-79.18 -8.25-99.88 -4.44-71.42 -6.98-123.68 -4.44-121.61l0-35.71 4.13-1.81q4.13-1.81 22.53-4.4t50.78-6.73 98.39-13.46 94.58-13.46 75.54-12.94 81.25-16.56 59.03-14.49 38.72-10.35 26.66-7.25 50.78-15.53 71.41-24.06 35.55-12.42 32.06-11.64 53.96-20.7 47.61-18.63 58.4-24.32l34.91-15.01 8.25 0z" fill="#bfbfbf" id="path2"/><path fill="black" d="m950.12 39.99l7.94 0 34.19 14.43q34.19 14.43 45.18 18.9 10.99 4.48 74.78 29.1t65.93 24.87q2.14 0.25 33.88 11.69t48.84 16.91q17.09 5.47 49.45 14.92 32.36 9.45 40.9 11.94 8.55 2.49 21.37 5.97 12.82 3.48 32.97 8.46 20.15 4.97 51.28 11.94 31.13 6.96 60.44 12.44 29.3 5.47 37.85 6.96 8.55 1.49 54.33 8.46 45.78 6.96 57.38 8.46 11.6 1.49 56.77 7.46 45.17 5.97 45.78 5.97 0.61 0 43.95 6.96t43.65 7.21l0.31 0.25 -1.83 74.12q-1.83 74.12-9.16 191.51 -7.33 117.39-11.6 164.16 -4.27 46.76-9.77 80.09 -5.49 33.33-12.82 63.17t-15.87 60.19q-8.55 30.34-15.26 53.23 -6.72 22.88-15.87 49.25 -9.16 26.36-10.99 31.84 -1.83 5.47-5.49 13.93 -3.66 8.46-8.55 20.89 -4.88 12.44-15.26 35.81t-17.09 37.31q-6.72 13.93-16.48 33.33 -9.77 19.4-25.03 46.76 -15.26 27.36-18.31 31.84 -3.05 4.48-22.28 32.58 -19.23 28.1-23.2 33.33t-18.92 26.36 -19.53 26.86q-4.58 5.72-14.04 17.91 -9.46 12.19-15.26 18.9 -5.8 6.72-13.43 15.92 -7.63 9.2-14.65 16.91 -7.02 7.71-10.99 12.93 -3.97 5.22-11.6 13.43 -7.63 8.21-14.65 16.42 -7.02 8.21-15.26 16.91 -8.24 8.71-14.04 14.92 -5.8 6.22-24.72 23.63t-44.56 39.79q-25.64 22.38-45.17 38.3t-25.95 20.15q-6.41 4.23-29.91 21.39 -23.5 17.16-28.69 20.89 -5.19 3.73-25.64 18.41 -20.45 14.67-26.86 18.9 -6.41 4.23-14.65 9.95 -8.24 5.72-22.89 15.67 -14.65 9.95-22.28 14.67 -7.63 4.73-14.65 8.46 -7.02 3.73-25.64 12.93t-24.42 12.44q-5.8 3.23-13.13 6.72 -7.33 3.48-15.26 7.96 -7.94 4.48-11.6 6.47 -3.66 1.99-15.87 6.96 -12.21 4.97-29.3 11.44 -17.09 6.47-23.81 8.46l-6.72 1.99 -7.33-1.49q-7.33-1.49-15.87-4.97 -8.55-3.48-28.69-11.94 -20.15-8.46-23.2-10.45 -3.05-1.99-15.57-8.7 -12.51-6.72-18.92-9.95 -6.41-3.23-25.03-12.44 -18.62-9.2-25.64-12.93 -7.02-3.73-14.65-8.46 -7.63-4.73-17.4-11.19 -9.77-6.47-25.95-17.66 -16.18-11.19-28.08-19.4 -11.9-8.21-34.8-24.87 -22.89-16.66-29.3-20.89 -6.41-4.23-28.08-19.9 -21.67-15.67-24.11-17.66 -2.44-1.99-21.67-17.66t-26.86-22.39q-7.63-6.72-33.58-29.85 -25.95-23.13-31.13-28.35 -5.19-5.22-15.26-15.42 -10.07-10.2-15.87-16.42 -5.8-6.22-11.6-12.93 -5.8-6.72-12.21-13.93 -6.41-7.21-11.6-12.93 -5.19-5.72-8.85-10.2t-10.07-11.69q-6.41-7.21-10.99-12.93 -4.58-5.72-12.21-14.92 -7.63-9.2-11.6-14.42 -3.97-5.22-12.82-16.42t-11.6-15.42q-2.75-4.23-15.26-21.39 -12.51-17.16-16.48-22.39 -3.97-5.22-19.84-28.6t-23.81-35.32q-7.94-11.94-14.04-22.39 -6.1-10.45-17.09-31.34 -10.99-20.89-10.99-21.39 0-0.5-10.99-22.88 -10.99-22.39-17.09-35.32 -6.1-12.93-17.09-39.3 -10.99-26.36-21.98-56.21 -10.99-29.85-24.42-72.62t-18.92-63.67 -15.26-60.69q-9.77-39.79-11.6-52.23 -1.83-12.44-7.94-76.11 -6.1-63.67-7.94-96.01t-4.27-68.65q-2.44-36.31-6.72-118.89 -4.27-82.57-4.27-116.9l0-34.32 3.97-1.74q3.97-1.74 21.67-4.23 17.7-2.49 48.84-6.47t94.62-12.93q63.49-8.95 90.96-12.93 27.47-3.98 72.65-12.44 45.17-8.46 78.14-15.92 32.97-7.46 56.77-13.93 23.81-6.47 37.24-9.95t25.64-6.96q12.21-3.48 48.84-14.92 36.63-11.44 68.68-23.13 32.05-11.69 34.19-11.94 2.14-0.25 30.83-11.19 28.69-10.94 51.89-19.9 23.2-8.95 45.78-17.91 22.59-8.95 56.16-23.38l33.58-14.43 7.94 0 0 0z" id="svg_1"/><use opacity="0.55" x="-44.95" y="-198.53" fill="#e5e5e5" xlink:href="#svg_3" id="svg_4"/><g id="svg_5"/><ellipse ry="378.32" rx="442" id="svg_6" cy="1340.09" cx="954.28" stroke-linecap="null" stroke-linejoin="null" stroke-dasharray="null" stroke-width="null" fill="#ff0000"/><polygon stroke-width="null" points="954.28 775.06 1012.27 941.89 1188.85 945.49 1048.1 1052.19 1099.25 1221.24 954.28 1120.36 809.31 1221.24 860.45 1052.19 719.71 945.49 896.29 941.89 954.28 775.06 1012.27 941.89" strokeWidth="null" strokecolor="none" fill="#7fff00" orient="point" r2="98.66" r="246.64" point="5" shape="star" id="svg_11" cy="856.89" cx="680.84"/><defs><symbol xmlns:xlink="http://www.w3.org/1999/xlink" xmlns="http://www.w3.org/2000/svg" x="0" y="0" viewBox="0 0 26 26" id="svg_3"><path d="m13.6 15.7c1.3 0 2.4 0.3 2.4 1.6s-1.1 1.6-2.4 1.6 -2.4-0.2-2.4-1.6 1.1-1.6 2.4-1.6z"/><path d="m19.4 12.5l-0.1-0.1 -0.1-0.1 -0.1-0.1c-3.1-2.8-7.9-2.7-10.9 0.3l-0.4 0.4 -0.5 0.5c-0.6 0.6-0.6 1.6 0 2.2s1.6 0.6 2.2 0l0.8-0.8c1.9-1.9 5-1.9 6.9 0l0.6 0.6c0.6 0.6 1.5 0.6 2.1 0 0.3-0.3 0.4-0.7 0.4-1.1s-0.2-0.8-0.4-1.1l-0.5-0.7z"/><path d="m23.6 9.5l-0.5-0.5 -0.4-0.4 -0.2-0.2c-5.2-4.4-13-4.3-17.9 0.5 0 0-0.1 0-0.1 0.1l-0.9 0.8c-0.5 0.5-0.5 1.4 0 2 0.5 0.5 1.4 0.5 2 0l0.9-0.9c4-3.9 10.4-3.9 14.4-0.1l0.7 0.7c0.5 0.5 1.4 0.5 2 0 0.5-0.5 0.5-1.4 0-2z"/></symbol></defs></svg>
